<svg width="512" height="512" viewBox="0 0 512 512" fill="none" xmlns="http://www.w3.org/2000/svg" role="img" aria-labelledby="title desc">
  <title id="title">Luminova high-fidelity traced mark</title>
  <desc id="desc">A high-fidelity vector trace of the approved image2 Luminova logo concept.</desc>
  <rect width="512" height="512" fill="transparent"/>
  <path d="M 388.0 250.0 L 383.0 251.0 L 368.0 258.0 L 356.0 267.0 L 358.0 278.0 L 362.0 285.0 L 373.0 278.0 L 376.0 275.0 L 393.0 266.0 L 393.0 263.0 L 389.0 258.0 L 389.0 251.0 Z" fill="#7C8FF9"/>
  <path d="M 361.0 285.0 L 358.0 281.0 L 357.0 275.0 L 356.0 274.0 L 356.0 270.0 L 355.0 267.0 L 354.0 267.0 L 323.0 291.0 L 321.0 291.0 L 319.0 289.0 L 313.0 289.0 L 309.0 286.0 L 303.0 285.0 L 298.0 281.0 L 293.0 281.0 L 288.0 279.0 L 286.0 277.0 L 266.0 287.0 L 254.0 291.0 L 239.0 294.0 L 238.0 295.0 L 229.0 296.0 L 229.0 297.0 L 234.0 303.0 L 236.0 303.0 L 248.0 310.0 L 251.0 310.0 L 260.0 320.0 L 264.0 322.0 L 267.0 325.0 L 275.0 327.0 L 276.0 326.0 L 287.0 325.0 L 295.0 322.0 L 298.0 322.0 L 304.0 319.0 L 314.0 316.0 L 321.0 312.0 L 323.0 312.0 L 346.0 298.0 L 349.0 295.0 L 353.0 293.0 L 357.0 288.0 L 361.0 287.0 Z" fill="#3E66EF"/>
  <path d="M 157.0 306.0 L 157.0 307.0 L 171.0 308.0 L 183.0 312.0 L 196.0 318.0 L 211.0 323.0 L 222.0 325.0 L 223.0 326.0 L 239.0 327.0 L 240.0 328.0 L 262.0 328.0 L 263.0 327.0 L 269.0 327.0 L 269.0 326.0 L 267.0 326.0 L 264.0 323.0 L 260.0 321.0 L 251.0 311.0 L 248.0 311.0 L 236.0 304.0 L 234.0 304.0 L 227.0 296.0 L 224.0 296.0 L 223.0 297.0 L 208.0 297.0 L 207.0 298.0 L 180.0 297.0 L 179.0 296.0 L 165.0 296.0 L 162.0 298.0 L 160.0 298.0 L 160.0 303.0 Z" fill="#3591E7"/>
  <path d="M 162.0 296.0 L 159.0 297.0 L 155.0 297.0 L 153.0 296.0 L 152.0 297.0 L 147.0 297.0 L 146.0 298.0 L 139.0 299.0 L 130.0 302.0 L 123.0 306.0 L 121.0 306.0 L 115.0 310.0 L 111.0 311.0 L 106.0 314.0 L 100.0 315.0 L 99.0 316.0 L 70.0 316.0 L 69.0 317.0 L 66.0 317.0 L 60.0 319.0 L 48.0 326.0 L 50.0 326.0 L 59.0 322.0 L 63.0 322.0 L 64.0 321.0 L 78.0 321.0 L 90.0 325.0 L 104.0 325.0 L 105.0 324.0 L 108.0 324.0 L 132.0 312.0 L 141.0 309.0 L 144.0 309.0 L 145.0 308.0 L 155.0 307.0 L 160.0 301.0 L 159.0 298.0 L 162.0 297.0 Z M 455.0 247.0 L 452.0 248.0 L 450.0 250.0 L 449.0 255.0 L 452.0 259.0 L 457.0 260.0 L 461.0 257.0 L 462.0 253.0 L 461.0 250.0 L 459.0 248.0 Z" fill="#3DCED5"/>
  <path d="M 382.0 250.0 L 376.0 251.0 L 373.0 254.0 L 370.0 255.0 L 359.0 255.0 L 354.0 259.0 L 351.0 258.0 L 338.0 259.0 L 334.0 257.0 L 327.0 257.0 L 323.0 255.0 L 309.0 254.0 L 305.0 260.0 L 293.0 272.0 L 288.0 275.0 L 287.0 277.0 L 293.0 280.0 L 298.0 280.0 L 303.0 284.0 L 309.0 285.0 L 313.0 288.0 L 323.0 290.0 L 355.0 265.0 L 369.0 256.0 L 375.0 254.0 L 380.0 251.0 L 382.0 251.0 Z" fill="#2C43AE"/>
  <path d="M 408.0 260.0 L 411.0 260.0 L 416.0 258.0 L 423.0 258.0 L 424.0 257.0 L 436.0 257.0 L 436.0 256.0 L 433.0 254.0 L 433.0 248.0 L 432.0 247.0 L 413.0 247.0 L 410.0 250.0 Z" fill="#E2E3E8" opacity="0.36"/>
  <path d="M 411.0 247.0 L 401.0 247.0 L 400.0 248.0 L 396.0 248.0 L 390.0 250.0 L 390.0 258.0 L 395.0 265.0 L 402.0 262.0 L 405.0 262.0 L 408.0 258.0 L 408.0 253.0 Z" fill="#B5C1DB" opacity="0.62"/>
  <path d="M 451.0 218.0 L 449.0 216.0 L 448.0 217.0 L 441.0 216.0 L 438.0 213.0 L 437.0 214.0 L 430.0 214.0 L 426.0 216.0 L 419.0 216.0 L 414.0 214.0 L 409.0 216.0 L 394.0 216.0 L 393.0 217.0 L 386.0 216.0 L 383.0 218.0 L 374.0 218.0 L 373.0 219.0 L 364.0 219.0 L 361.0 218.0 L 360.0 219.0 L 357.0 219.0 L 355.0 221.0 L 349.0 220.0 L 344.0 223.0 L 334.0 223.0 L 333.0 224.0 L 328.0 224.0 L 324.0 221.0 L 324.0 219.0 L 323.0 219.0 L 323.0 224.0 L 322.0 225.0 L 322.0 228.0 L 320.0 234.0 L 315.0 244.0 L 315.0 246.0 L 311.0 252.0 L 315.0 254.0 L 323.0 254.0 L 327.0 256.0 L 334.0 256.0 L 338.0 258.0 L 345.0 258.0 L 346.0 257.0 L 354.0 258.0 L 359.0 254.0 L 370.0 254.0 L 373.0 253.0 L 376.0 250.0 L 379.0 249.0 L 387.0 249.0 L 393.0 246.0 L 400.0 246.0 L 401.0 245.0 L 432.0 245.0 L 433.0 246.0 L 441.0 246.0 L 448.0 239.0 L 452.0 237.0 Z" fill="#1F3075"/>
  <path d="M 324.0 146.0 L 324.0 205.0 L 325.0 206.0 L 324.0 209.0 L 324.0 217.0 L 325.0 220.0 L 324.0 222.0 L 327.0 222.0 L 328.0 223.0 L 344.0 222.0 L 349.0 219.0 L 355.0 220.0 L 357.0 218.0 L 360.0 218.0 L 361.0 217.0 L 364.0 218.0 L 373.0 218.0 L 374.0 217.0 L 383.0 217.0 L 384.0 216.0 L 393.0 216.0 L 394.0 215.0 L 409.0 215.0 L 410.0 214.0 L 426.0 215.0 L 430.0 213.0 L 439.0 213.0 L 441.0 215.0 L 452.0 217.0 L 452.0 163.0 L 451.0 162.0 L 451.0 150.0 L 449.0 148.0 L 447.0 148.0 L 444.0 150.0 L 440.0 150.0 L 439.0 149.0 L 438.0 150.0 L 435.0 150.0 L 431.0 147.0 L 430.0 148.0 L 426.0 148.0 L 421.0 152.0 L 415.0 153.0 L 411.0 156.0 L 404.0 157.0 L 398.0 161.0 L 395.0 161.0 L 392.0 165.0 L 388.0 165.0 L 382.0 170.0 L 380.0 170.0 L 377.0 167.0 L 374.0 166.0 L 372.0 170.0 L 366.0 170.0 L 364.0 168.0 L 361.0 168.0 L 360.0 167.0 L 358.0 171.0 L 349.0 171.0 L 348.0 172.0 L 345.0 172.0 L 344.0 174.0 L 342.0 174.0 L 341.0 173.0 L 337.0 173.0 L 334.0 171.0 L 329.0 172.0 L 327.0 170.0 L 327.0 166.0 L 325.0 163.0 L 325.0 146.0 Z" fill="#17244D"/>
  <path d="M 68.0 330.0 L 67.0 331.0 L 67.0 354.0 L 69.0 359.0 L 76.0 365.0 L 85.0 369.0 L 87.0 371.0 L 98.0 376.0 L 102.0 379.0 L 103.0 378.0 L 103.0 353.0 L 101.0 348.0 L 96.0 342.0 L 85.0 334.0 L 74.0 330.0 Z M 300.0 323.0 L 294.0 325.0 L 291.0 325.0 L 290.0 326.0 L 287.0 326.0 L 286.0 327.0 L 276.0 328.0 L 275.0 329.0 L 266.0 329.0 L 265.0 330.0 L 242.0 330.0 L 241.0 329.0 L 231.0 329.0 L 230.0 328.0 L 219.0 328.0 L 213.0 332.0 L 210.0 341.0 L 210.0 440.0 L 211.0 441.0 L 226.0 434.0 L 228.0 432.0 L 230.0 432.0 L 232.0 430.0 L 281.0 405.0 L 293.0 394.0 L 298.0 385.0 L 300.0 379.0 L 300.0 328.0 L 301.0 327.0 L 301.0 324.0 Z M 141.0 319.0 L 127.0 327.0 L 121.0 333.0 L 116.0 341.0 L 116.0 344.0 L 115.0 345.0 L 115.0 375.0 L 116.0 376.0 L 117.0 382.0 L 120.0 387.0 L 129.0 395.0 L 169.0 416.0 L 171.0 418.0 L 182.0 423.0 L 186.0 426.0 L 187.0 425.0 L 187.0 329.0 L 182.0 324.0 L 168.0 318.0 L 163.0 318.0 L 162.0 317.0 L 149.0 317.0 L 148.0 318.0 Z M 440.0 259.0 L 418.0 260.0 L 417.0 261.0 L 413.0 261.0 L 412.0 262.0 L 405.0 263.0 L 399.0 266.0 L 394.0 267.0 L 379.0 275.0 L 346.0 300.0 L 325.0 313.0 L 325.0 413.0 L 326.0 414.0 L 325.0 420.0 L 326.0 421.0 L 362.0 400.0 L 364.0 398.0 L 367.0 397.0 L 369.0 395.0 L 374.0 393.0 L 379.0 389.0 L 392.0 382.0 L 415.0 367.0 L 418.0 366.0 L 421.0 363.0 L 424.0 362.0 L 435.0 354.0 L 444.0 345.0 L 449.0 337.0 L 451.0 331.0 L 451.0 328.0 L 452.0 327.0 L 452.0 270.0 L 445.0 266.0 L 442.0 263.0 Z M 102.0 245.0 L 84.0 254.0 L 78.0 258.0 L 70.0 266.0 L 67.0 273.0 L 67.0 306.0 L 68.0 307.0 L 83.0 299.0 L 89.0 297.0 L 99.0 288.0 L 102.0 282.0 L 102.0 278.0 L 103.0 277.0 L 103.0 246.0 Z M 186.0 173.0 L 176.0 178.0 L 174.0 178.0 L 142.0 194.0 L 127.0 204.0 L 119.0 213.0 L 115.0 224.0 L 115.0 277.0 L 114.0 278.0 L 113.0 285.0 L 107.0 296.0 L 97.0 305.0 L 90.0 309.0 L 84.0 311.0 L 83.0 313.0 L 84.0 314.0 L 95.0 315.0 L 96.0 314.0 L 106.0 312.0 L 112.0 309.0 L 115.0 306.0 L 118.0 305.0 L 122.0 301.0 L 125.0 300.0 L 130.0 296.0 L 139.0 292.0 L 141.0 290.0 L 143.0 290.0 L 146.0 288.0 L 158.0 284.0 L 171.0 276.0 L 181.0 265.0 L 185.0 257.0 L 186.0 251.0 L 187.0 250.0 L 187.0 174.0 Z M 299.0 121.0 L 271.0 135.0 L 269.0 135.0 L 240.0 150.0 L 238.0 150.0 L 236.0 152.0 L 225.0 157.0 L 217.0 164.0 L 211.0 176.0 L 211.0 238.0 L 210.0 239.0 L 210.0 246.0 L 206.0 258.0 L 199.0 270.0 L 187.0 282.0 L 178.0 288.0 L 170.0 292.0 L 164.0 293.0 L 164.0 294.0 L 179.0 294.0 L 180.0 293.0 L 197.0 292.0 L 198.0 291.0 L 203.0 291.0 L 204.0 290.0 L 209.0 290.0 L 210.0 289.0 L 224.0 287.0 L 225.0 286.0 L 228.0 286.0 L 232.0 284.0 L 238.0 283.0 L 241.0 281.0 L 246.0 280.0 L 266.0 269.0 L 284.0 252.0 L 294.0 236.0 L 294.0 234.0 L 298.0 226.0 L 299.0 218.0 L 300.0 217.0 L 300.0 122.0 Z M 447.0 83.0 L 440.0 76.0 L 432.0 72.0 L 428.0 72.0 L 427.0 71.0 L 413.0 72.0 L 337.0 106.0 L 329.0 114.0 L 325.0 123.0 L 326.0 163.0 L 328.0 166.0 L 328.0 170.0 L 329.0 171.0 L 341.0 172.0 L 344.0 174.0 L 345.0 171.0 L 348.0 171.0 L 349.0 170.0 L 359.0 170.0 L 360.0 167.0 L 364.0 167.0 L 366.0 169.0 L 372.0 169.0 L 374.0 166.0 L 377.0 166.0 L 380.0 169.0 L 382.0 169.0 L 388.0 164.0 L 392.0 164.0 L 395.0 160.0 L 401.0 159.0 L 402.0 157.0 L 406.0 157.0 L 408.0 155.0 L 411.0 155.0 L 415.0 152.0 L 421.0 151.0 L 426.0 147.0 L 432.0 147.0 L 435.0 149.0 L 441.0 149.0 L 442.0 150.0 L 447.0 147.0 L 449.0 147.0 L 451.0 149.0 L 452.0 148.0 L 452.0 94.0 Z" fill="#101B33"/>
</svg>
